<svg width="60" height="79" viewBox="0 0 60 79" fill="none" xmlns="http://www.w3.org/2000/svg">
<path d="M10.8414 6.75C9.16669 9.65062 9.16669 13.5449 9.16669 21.3333V33.9454C10.9595 33.8329 12.9749 33.8333 15.1449 33.8333H44.8534C47.0242 33.8333 49.04 33.8329 50.8334 33.9454V21.3333C50.8334 13.5449 50.8334 9.65062 49.1588 6.75C48.0617 4.84975 46.4838 3.27179 44.5834 2.17467C41.6825 0.5 37.7884 0.5 30 0.5C22.2117 0.5 18.3173 0.5 15.4167 2.17467C13.5164 3.27179 11.9385 4.84975 10.8414 6.75Z" fill="#682800"/>
<path d="M6.04164 54.6308C3.94981 54.5462 2.68356 54.2633 1.81664 53.3175C0.580226 51.9679 0.74131 50.0908 1.06352 46.3367C1.2961 43.6263 1.82206 41.8021 3.01139 40.4408C5.14373 38 8.57564 38 15.4395 38H44.5604C51.4241 38 54.8562 38 56.9887 40.4408C58.1779 41.8021 58.7037 43.6263 58.9366 46.3367C59.2587 50.0908 59.4196 51.9679 58.1833 53.3175C57.3162 54.2633 56.05 54.5462 53.9583 54.6308V75.4996C53.9583 77.2258 52.5591 78.6246 50.8333 78.6246C49.1075 78.6246 47.7083 77.2258 47.7083 75.4996V54.6667H12.2916V75.4996C12.2916 77.2258 10.8925 78.6246 9.16664 78.6246C7.44077 78.6246 6.04164 77.2258 6.04164 75.4996V54.6308Z" fill="#682800"/>
</svg>
